<svg width="220" height="220" xmlns="http://www.w3.org/2000/svg">
 <title>Arrow_right</title>

 <g>
  <title>Layer 1</title>
  <ellipse ry="100" rx="100" id="svg_1" cy="112" cx="105" stroke="#000" fill="#0000ff"/>
  <path stroke="#000" id="svg_3" d="m82.33876,169.7739c-5.60737,-3.32429 -4.87169,-5.33732 8.76151,-23.97207c6.8841,-9.40958 12.5165,-17.38178 12.5165,-17.71599c0,-0.33418 -19.00937,-0.60762 -42.24319,-0.60762l-42.24319,0l0,-17.6232l0,-17.6232l42.57799,0c32.83002,0 42.21147,-0.5309 40.97733,-2.31885c-0.88035,-1.27536 -6.88564,-9.73845 -13.3451,-18.80683c-12.17616,-17.09412 -12.17234,-21.67834 0.01881,-23.09929c6.06708,-0.70713 100.52429,53.62485 103.77098,59.68933c-31.46287,21.6535 -69.07167,44.31915 -103.71549,64.30382c-1.82669,0 -5.01092,-1.00174 -7.07615,-2.2261l-0.00001,0l0.00001,0z" fill="#ffffff"/>
 </g>
</svg>